<svg xmlns="http://www.w3.org/2000/svg" width="70" height="54" viewBox="0 0 70 54" fill='none'>
  <symbol id='diagrama' viewBox="0 0 70 54">
  <path d="M3.49817 53.8865H59.4689C61.4007 53.8865 62.967 52.3202 62.967 50.3883V45.7241C62.967 43.7923 61.4007 42.2259 59.4689 42.2259H58.3028V13.1469L64.9262 6.87247C66.4635 7.63029 68.3242 7.17024 69.3302 5.78157C70.3369 4.39346 70.1957 2.48211 68.9966 1.25684C67.7975 0.031566 65.8901 -0.1512 64.4798 0.82412C63.0701 1.80001 62.569 3.64987 63.2933 5.20366L58.3028 9.9345V7.24426C58.3028 5.31241 56.7365 3.74609 54.8046 3.74609H8.16239C6.23054 3.74609 4.66422 5.31241 4.66422 7.24426V42.2259H3.49817C1.56632 42.2259 0 43.7923 0 45.7241V50.3883C0 52.3202 1.56632 53.8865 3.49817 53.8865ZM66.4652 2.58004C67.1091 2.58004 67.6312 3.10214 67.6312 3.74609C67.6312 4.39004 67.1091 4.91215 66.4652 4.91215C65.8212 4.91215 65.2991 4.39004 65.2991 3.74609C65.2991 3.10214 65.8212 2.58004 66.4652 2.58004ZM6.99634 7.24426C6.99634 6.60031 7.51844 6.07821 8.16239 6.07821H54.8046C55.4486 6.07821 55.9707 6.60031 55.9707 7.24426V12.1414L53.6386 14.3573V9.57637C53.6386 8.93242 53.1165 8.41032 52.4725 8.41032H10.4945C9.85055 8.41032 9.32845 8.93242 9.32845 9.57637V38.7278C9.32845 39.3717 9.85055 39.8938 10.4945 39.8938H52.4725C53.1165 39.8938 53.6386 39.3717 53.6386 38.7278V17.5651L55.9707 15.3554V42.2259H6.99634V7.24426ZM17.4908 22.403C15.9131 22.3984 14.5279 23.4495 14.1083 24.9703C13.6886 26.491 14.3383 28.104 15.6951 28.9091C17.0513 29.7142 18.7793 29.5121 19.9129 28.4149L23.9662 30.4487C24.4371 30.6844 25.0081 30.5739 25.3583 30.1805L33.9745 20.4871L42.4443 26.8338C42.8987 27.1743 43.5329 27.1378 43.9452 26.7478L51.3065 19.7748V37.5617H11.6606V10.7424H51.3065V16.5619L43.0564 24.3747L34.5154 17.9716C34.0303 17.6084 33.3476 17.6767 32.9445 18.1294L24.2099 27.9571L20.9446 26.3242C20.9685 26.1841 20.9833 26.0429 20.989 25.9012C20.989 23.9693 19.4227 22.403 17.4908 22.403ZM18.6569 25.9012C18.6569 26.5451 18.1348 27.0672 17.4908 27.0672C16.8469 27.0672 16.3248 26.5451 16.3248 25.9012C16.3248 25.2572 16.8469 24.7351 17.4908 24.7351C18.1348 24.7351 18.6569 25.2572 18.6569 25.9012ZM25.6532 44.5581H37.3138V45.7241C37.3138 46.3681 36.7917 46.8902 36.1477 46.8902H26.8193C26.1753 46.8902 25.6532 46.3681 25.6532 45.7241V44.5581ZM2.33211 45.7241C2.33211 45.0802 2.85422 44.5581 3.49817 44.5581H23.3211V45.7241C23.3211 47.656 24.8874 49.2223 26.8193 49.2223H36.1477C38.0796 49.2223 39.6459 47.656 39.6459 45.7241V44.5581H59.4689C60.1128 44.5581 60.6349 45.0802 60.6349 45.7241V50.3883C60.6349 51.0323 60.1128 51.5544 59.4689 51.5544H3.49817C2.85422 51.5544 2.33211 51.0323 2.33211 50.3883V45.7241Z" />
</symbol>
<symbol id='astronaut' viewBox="0 0 55 61">
  <path d="M54.0635 25.9738C53.4348 25.1256 52.5119 24.5797 51.4642 24.4326C50.4119 24.2833 49.3735 24.5597 48.5335 25.2026L45.7952 27.3014L45.794 27.3026L41.6429 30.4025L38.6725 29.2194C43.9692 26.8429 47.6712 21.545 47.6712 15.3942C47.6712 7.03141 40.8402 0.227356 32.4436 0.227356C24.047 0.227356 17.2162 7.03141 17.2162 15.3942C17.2162 18.4253 18.1226 21.2439 19.6662 23.6158L13.6204 23.5633C13.6169 23.5633 13.6134 23.5633 13.6099 23.5633C13.5912 23.5633 13.5761 23.5726 13.5586 23.5738C13.4431 23.5785 13.3299 23.6018 13.2191 23.6415C13.1911 23.652 13.162 23.6579 13.1352 23.6706C13.1212 23.6765 13.1072 23.6776 13.0932 23.6846L6.02078 27.1764C6.01955 27.1764 6.01846 27.1764 6.01846 27.1775L1.87663 29.1693C1.8311 29.1891 1.78448 29.2159 1.73895 29.2462C0.0880496 30.3452 -0.474284 32.5036 0.429989 34.2676C0.911793 35.2056 1.73198 35.8963 2.74003 36.2124C3.12859 36.3337 3.52521 36.3933 3.91952 36.3933C4.55308 36.3933 5.18077 36.2381 5.75582 35.9313L8.79157 34.3167L13.7441 31.7593L16.7122 31.7418L4.80848 43.5884C4.80738 43.5896 4.80615 43.5896 4.80492 43.5907L1.8765 46.5074C1.18469 47.1958 0.80433 48.1092 0.80433 49.0835C0.80433 50.0565 1.18469 50.9723 1.8765 51.6619C2.58703 52.3689 3.52152 52.7235 4.45601 52.7235C5.39173 52.7235 6.32498 52.3689 7.03785 51.6619L9.91254 48.7988L13.7206 45.9556L15.6912 47.9179L11.8376 51.7551C11.8365 51.7564 11.8352 51.7564 11.834 51.7575L8.90559 54.6741C8.21378 55.3625 7.83343 56.2759 7.83343 57.2502C7.83343 58.2233 8.21378 59.139 8.90559 59.8286C9.61613 60.5356 10.5518 60.8903 11.4863 60.8903C12.4208 60.8903 13.3565 60.5356 14.0682 59.8286L16.9977 56.912L21.6842 52.2453C21.6854 52.244 21.6854 52.2429 21.6865 52.2417L23.8951 50.0542L23.8869 50.046C23.9009 50.032 23.9207 50.0272 23.9348 50.0122L35.2353 37.6349L42.8281 38.7152C42.8829 38.7234 42.9377 38.7269 42.9926 38.7269C43.1338 38.7269 43.2703 38.6931 43.4021 38.6429C43.4406 38.629 43.4744 38.6102 43.5106 38.5916C43.5526 38.5706 43.5969 38.559 43.6367 38.5322L50.6659 33.8655C50.6916 33.848 50.7056 33.8199 50.73 33.8013C50.758 33.7792 50.7931 33.7699 50.8186 33.7453L53.5999 31.1401C55.0471 29.7841 55.2466 27.5628 54.0635 25.9738ZM4.66027 33.8722C4.28114 34.0752 3.85061 34.1159 3.43881 33.9854C3.03042 33.8582 2.69915 33.5793 2.50541 33.2025C2.15308 32.5164 2.35721 31.6811 2.97436 31.2296L5.84796 29.8471L6.53977 31.8689L6.8303 32.7182L4.66027 33.8722ZM12.3102 29.874L8.92336 31.6241L8.36459 29.9907L7.96331 28.8169L12.3968 26.6282L12.3102 29.874ZM45.3402 15.3919C45.3402 17.4009 44.8607 19.2957 44.03 20.9907L34.8832 16.8362C34.7875 15.5821 34.1366 14.4842 33.1589 13.8005L36.3615 3.16849C41.5626 4.82295 45.3402 9.67518 45.3402 15.3919ZM19.5519 15.3919C19.5519 8.3159 25.3363 2.55831 32.4461 2.55831C32.9991 2.55831 33.5404 2.60493 34.0759 2.67261L30.9434 13.0713C30.9014 13.0701 30.8617 13.0585 30.8185 13.0585C28.5598 13.0585 26.7222 14.8901 26.7222 17.1419C26.7222 19.3936 28.5598 21.2254 30.8185 21.2254C32.3375 21.2254 33.65 20.3866 34.3582 19.1591L42.8073 22.9975C40.4564 26.1615 36.6938 28.2255 32.4459 28.2255C25.3363 28.2255 19.5519 22.4679 19.5519 15.3919ZM32.5814 17.1419C32.5814 18.1068 31.7903 18.8919 30.8185 18.8919C29.8467 18.8919 29.0557 18.1068 29.0557 17.1419C29.0557 16.1771 29.8467 15.3919 30.8185 15.3919C31.7903 15.3919 32.5814 16.1771 32.5814 17.1419ZM5.39186 50.0074C4.87506 50.5196 4.03846 50.5185 3.52289 50.0087C3.27433 49.7601 3.13788 49.4324 3.13788 49.0835C3.13788 48.7358 3.27433 48.4079 3.52289 48.1618L5.62743 46.0652L7.48944 47.9191L5.39186 50.0074ZM12.4222 58.1743C11.9054 58.6865 11.0677 58.6877 10.552 58.1755C10.3034 57.927 10.167 57.5993 10.167 57.2503C10.167 56.9027 10.3034 56.5748 10.552 56.3287L12.6579 54.231L13.5388 55.1073L14.5211 56.0849L12.4222 58.1743ZM20.0384 50.5862C20.0371 50.5873 20.036 50.5873 20.0348 50.5885L16.1742 54.4385L15.2933 53.5623L14.311 52.5846L18.168 48.7451C18.168 48.7451 18.168 48.7451 18.168 48.744C18.1693 48.7428 18.1703 48.7428 18.1716 48.7417C18.2591 48.6542 18.3139 48.5492 18.3676 48.4454C18.3828 48.415 18.4119 48.3893 18.4248 48.3579C18.461 48.2681 18.4668 48.1713 18.4808 48.0767C18.4878 48.0229 18.5112 47.9729 18.5112 47.9179C18.5112 47.8397 18.4832 47.764 18.4669 47.6869C18.4529 47.6169 18.4529 47.5456 18.426 47.4781C18.3817 47.3684 18.3058 47.2716 18.2265 47.177C18.2044 47.1513 18.1962 47.1186 18.1717 47.0942C18.1717 47.0942 18.1717 47.0942 18.1705 47.0942C18.1693 47.0931 18.1693 47.0906 18.1682 47.0895L14.6529 43.5895C14.6156 43.5521 14.5678 43.537 14.5258 43.5055C14.464 43.4577 14.4045 43.4134 14.3356 43.3795C14.2692 43.3468 14.2015 43.327 14.1315 43.3082C14.0568 43.2872 13.9845 43.2709 13.9063 43.265C13.8351 43.2604 13.7686 43.2674 13.6975 43.2756C13.6193 43.2849 13.5459 43.2954 13.47 43.3199C13.3965 43.3432 13.3312 43.3793 13.2636 43.4179C13.2204 43.4424 13.1714 43.4506 13.1305 43.4809L9.25136 46.3767L7.2808 44.4143L12.5286 39.1946L22.0674 48.576L20.0384 50.5862ZM34.9545 35.2372C34.9207 35.2325 34.8891 35.2454 34.8554 35.2431C34.7702 35.2384 34.6886 35.2443 34.6034 35.2582C34.5369 35.2699 34.4739 35.2827 34.4109 35.3049C34.3362 35.3306 34.2686 35.3656 34.1996 35.4075C34.1343 35.4472 34.0748 35.4892 34.0177 35.5417C33.9896 35.5661 33.9559 35.5779 33.9302 35.6058L23.6527 46.862L14.1851 37.5506L20.3825 31.3859C20.8387 30.9309 20.8411 30.1923 20.386 29.735C20.1562 29.5052 19.8541 29.392 19.5519 29.3932V29.3921L14.6985 29.4212L14.7592 25.9049L21.5493 25.9633C24.3166 28.7937 28.176 30.5589 32.4461 30.5589C33.4027 30.5589 34.3361 30.4598 35.2449 30.2905C35.3324 30.3605 35.4186 30.4317 35.5284 30.476L40.7996 32.5761L41.1332 34.235L41.5228 36.1717L34.9545 35.2372ZM43.7944 35.6269L43.1096 32.2189L46.2736 29.8564L47.102 30.9554L48.3445 32.605L43.7944 35.6269ZM52.0055 29.4341L50.1726 31.1514L48.1356 28.4471L49.9544 27.0529C50.2939 26.7917 50.7221 26.6854 51.1421 26.7403C51.5644 26.7997 51.9378 27.0203 52.1921 27.3621C52.6659 28.0003 52.5853 28.8905 52.0055 29.4341Z"/>
</symbol>
<symbol id='clock' viewBox="0 0 68 70">
  <path d="M67.4614 33.4715C67.4576 14.9819 52.4656 -0.00373771 33.9754 6.99302e-07C15.4858 0.00373911 0.500169 14.9963 0.503907 33.4859C0.507111 48.0502 9.92522 60.9413 23.7995 65.3713C23.9319 65.413 24.0697 65.4343 24.2081 65.4338C24.4719 65.4333 24.7304 65.3628 24.9573 65.2287C25.2527 65.0541 25.4732 64.7764 25.5768 64.449L34.0315 37.6521C36.3429 37.6404 38.2068 35.7568 38.1945 33.4459C38.1827 31.1345 36.2997 29.2706 33.9883 29.2824C33.3666 29.285 32.753 29.4282 32.1944 29.7011L21.0251 18.5302C20.4707 17.9951 19.5879 18.0106 19.0528 18.5644C18.5305 19.1054 18.5305 19.962 19.0528 20.503L30.2162 31.6792C29.3596 33.4277 29.8493 35.5383 31.3895 36.7303L23.3338 62.2647C7.41354 56.4002 -0.738311 38.7405 5.12618 22.8203C10.9907 6.90002 28.6503 -1.25183 44.5706 4.61266C60.4909 10.4771 68.6427 28.1374 62.7782 44.0571C59.913 51.8351 54.0261 58.1252 46.4548 61.4989L45.5842 57.3989C45.4251 56.6454 44.6844 56.1636 43.9308 56.3233C43.6931 56.3741 43.4726 56.4857 43.291 56.6475L34.8978 64.1409C34.322 64.653 34.2708 65.5347 34.7835 66.1105C34.9501 66.2974 35.1637 66.4362 35.403 66.5126L46.1188 69.9327C46.8521 70.1682 47.6377 69.765 47.8732 69.0312C47.948 68.7994 47.9603 68.5527 47.9101 68.3145L47.0545 64.2915C59.4452 59.0678 67.4902 46.918 67.4614 33.4715ZM33.9829 32.0766C34.753 32.0766 35.3779 32.7014 35.3779 33.4715C35.3779 34.2422 34.753 34.8665 33.9829 34.8665C33.2123 34.8665 32.588 34.2422 32.588 33.4715C32.588 32.7014 33.2123 32.0766 33.9829 32.0766ZM38.5774 64.5916L43.3551 60.3298L44.6737 66.543L38.5774 64.5916Z"/>
</symbol>
<symbol id='antena' viewBox="0 0 66 70">
  <path d="M65.3163 48.3385L46.8468 29.7337L48.8966 19.6373C49.4256 19.8438 49.9879 19.9517 50.5556 19.9558H50.5696C53.1777 19.9866 55.3169 17.8974 55.3479 15.2893C55.3788 12.6812 53.2894 10.542 50.6813 10.5111C48.0732 10.4803 45.934 12.5695 45.9031 15.1776C45.8965 15.7357 45.9888 16.2905 46.176 16.8163L35.326 18.1405L17.6276 0.35C17.4105 0.128479 17.1141 0.00247917 16.804 0C16.4977 0.00160417 16.2044 0.123521 15.9873 0.3395L12.6786 3.6295C12.2232 4.08508 12.2232 4.82358 12.6786 5.27917L14.459 7.08517C7.56162 19.7681 9.80191 35.4741 19.9703 45.7228C20.0636 45.8121 20.1718 45.8843 20.29 45.9363C20.2165 46.3311 20.1781 46.7317 20.1756 47.1333V60.6667H6.17562C2.95562 60.6705 0.346077 63.28 0.342285 66.5V68.8333C0.342285 69.4776 0.86466 70 1.50895 70H55.1756C55.8199 70 56.3423 69.4776 56.3423 68.8333V66.5C56.3385 63.28 53.729 60.6705 50.509 60.6667H36.509V54.6688C38.7021 55.1288 40.9367 55.3633 43.1776 55.3688C48.5548 55.363 53.8464 54.0225 58.5776 51.4675L60.3673 53.2677C60.5844 53.4892 60.8808 53.6152 61.191 53.6177C61.4972 53.6161 61.7905 53.4941 62.0076 53.2782L65.3163 49.9882C65.7717 49.5326 65.7717 48.7941 65.3163 48.3385ZM48.9246 13.6348C49.8383 12.726 51.3157 12.7301 52.2244 13.6437C53.1332 14.5574 53.1291 16.0348 52.2155 16.9435C51.7781 17.3785 51.1864 17.6226 50.5695 17.6225H50.5625C49.2739 17.6158 48.2345 16.5658 48.2412 15.2771C48.2445 14.6602 48.4918 14.0699 48.9291 13.6348H48.9246ZM46.1783 21.301L44.8693 27.7445L42.298 25.158L46.1783 21.301ZM44.853 19.3282L40.653 23.5037L37.4038 20.237L44.853 19.3282ZM50.509 63C52.442 63 54.009 64.567 54.009 66.5V67.6667H2.67562V66.5C2.67562 64.567 4.2426 63 6.17562 63H50.509ZM34.1756 58.3333V60.6667H22.509V58.3333H34.1756ZM22.509 56V47.1333C22.509 44.303 25.1258 42 28.3423 42C31.5588 42 34.1756 44.303 34.1756 47.1333V56H22.509ZM36.509 52.29V47.1333C36.509 43.0162 32.8456 39.6667 28.3423 39.6667C25.4306 39.622 22.7079 41.1041 21.165 43.5738C12.2887 34.2249 10.2899 20.2875 16.1805 8.82073L56.872 49.7455C50.5886 52.9419 43.3857 53.8418 36.509 52.29ZM61.2038 50.7943L59.56 49.1412L16.7923 6.11567L15.1415 4.46133L16.7923 2.81633L34.15 20.272C34.1581 20.272 34.1628 20.2872 34.171 20.293L62.8593 49.1493L61.2038 50.7943Z" />
</symbol>
</svg>
